# xmcd
# 
# Track frame offsets:
#     150
#     16132
#     34067
#     45762
#     66225
#     79905
#     100282
#     116645
#     137940
#     161635
#     174432
#     185102
#     197050
#     210357
#     228740
#     247305
#     264397
#     281687
# 
# Disc length: 4011
# 
# Revision: 2
# Processed by: cddbd v1.5.1PL0 Copyright (c) Steve Scherf et al.
# Submitted via: BonkEnc v1.0beta3
# 
DISCID=050fa912
DTITLE=Various Artist - Texas Outlaws
DYEAR=2003
DGENRE=Country
TTITLE0=Pat Green - Me and Billy the Kid (Live)
TTITLE1=Jack Ingram - Only Daddy That'll Walk the Line
TTITLE2=Roger Creager - Guitar Town
TTITLE3=Cory Morrow - The Preacher
TTITLE4=Kevin Fowler - I'm the Only Hell (Momma Ever Raised)
TTITLE5=Cooder Graw - Ain't Livin' Long Like This
TTITLE6=Robert Earl Keen - Whenever Kindness Fails
TTITLE7=Max Stalling - El Paso
TTITLE8=Ray Wylie Hubbard - Dust of the Chase
TTITLE9=Owen Temple - Lost Highway
TTITLE10=Reckless Kelly - Rodeo Man
TTITLE11=Dale Watson - In the Jailhouse Now (Live)
TTITLE12=John Evans - Folsom Prison Blues
TTITLE13=Billy Joe Shaver - Georgia on a Fast Train (Live)
TTITLE14=Chris Wall - Cowboy Nation
TTITLE15=Mike McClure - Outlaw's Prayer
TTITLE16=Townes Van Zandt - Poncho and Lefty (Live)
TTITLE17=Willie Nelson w/Lil Black - Back on the Road
EXTD=YEAR: 2003
EXTT0=
EXTT1=
EXTT2=
EXTT3=
EXTT4=
EXTT5=
EXTT6=
EXTT7=
EXTT8=
EXTT9=
EXTT10=
EXTT11=
EXTT12=
EXTT13=
EXTT14=
EXTT15=
EXTT16=
EXTT17=
PLAYORDER=
